<?xml version="1.0" encoding="utf-8"?>
<!-- Generator: Adobe Illustrator 16.0.0, SVG Export Plug-In . SVG Version: 6.00 Build 0)  -->
<!DOCTYPE svg PUBLIC "-//W3C//DTD SVG 1.1//EN" "http://www.w3.org/Graphics/SVG/1.1/DTD/svg11.dtd">
<svg version="1.1" xmlns="http://www.w3.org/2000/svg" xmlns:xlink="http://www.w3.org/1999/xlink" x="0px" y="0px"
	 width="841.89px" height="595.28px" viewBox="0 0 841.89 595.28" enable-background="new 0 0 841.89 595.28" xml:space="preserve">
<g id="Layer_1">
	<circle fill="none" stroke="#000000" stroke-miterlimit="10" cx="411.951" cy="246.439" r="127.805"/>
	<path fill="#FFFFFF" stroke="#000000" stroke-miterlimit="10" d="M312,204c-26.5,41,5,104,12,112.25
		c0.25-17.75,7.5-30.75,7.5-30.75s8.75,45,14,54.25c4.25-13.25,11.518-37.72,18.75-41.5c1.25,11.5,3.75,40.5,11.25,56.75
		c5-19.25,13.5-44.5,20.5-52.5c4.25,15.25,11.5,45.5,18,58.5c5.5-14,13.25-34.5,19-59.25c7,8.75,15.5,21.5,19.25,52.5
		c13.5-32.5,13-40.25,13.75-58.75c9.75,8.5,14.25,26.25,16.75,42.5c10.25-24.75,10-38,10.25-51.75c8.75,7.75,8.75,17,11.25,26.75
		c25-25.25,27.5-84.75,12.25-105.75c-3,18.25-3.75,38.75-19,52.5c-1-11.25-7.5-22.25-16-29.75c-0.75,6.25,0.25,19-15.75,39.75
		C464,260,456,244,443,238.5c-1.689,6.579-2,25.25-14.75,39c-2-11.25-7.75-27.75-15.75-39.25c-8,10.25-15.25,23-19.5,40
		c-10-6-13.75-24.75-15.5-39.5c-9,7.5-19.25,23.75-22.25,33c-5.25-7.5-12-21-14.75-40.75c-5.585,5.39-8.25,14.75-13.25,30.75
		C320.25,255.5,312.75,234.25,312,204z"/>
	<polygon fill="#FFFFFF" stroke="#000000" stroke-miterlimit="10" points="411.917,202.167 400.417,227.667 424.917,226.417 	"/>
	<path fill="#FFFFFF" stroke="#000000" stroke-miterlimit="10" d="M363.293,174.618c-4.725,0.545-6.779,5.962-8.961,12.884
		c-4.256-10.047-0.589-18.898,1.746-23.004c-0.623-0.43-1.266-0.843-1.957-1.211c-17.622-9.41-42.628,19.022-23.943,35.098
		c17.169,14.771,57.069,19.449,57.069,19.449C372.81,204.892,367.392,188.856,363.293,174.618z"/>
	<path fill="#FFFFFF" stroke="#000000" stroke-miterlimit="10" d="M478.541,161.783c-5.387,0.953-8.946,4.488-12.072,9.664
		c8.82,2.314,14.579,11.392,9.468,20.084c-5.241-7.786-8.538-7.9-13.997-8.569c-5.316,11.61-11.851,24.724-26.329,38.479
		c33.211-0.975,60.779-14.973,70.853-24.741C516.455,186.66,499.292,158.113,478.541,161.783z"/>
</g>
<g id="Layer_2">
</g>
</svg>
